# File created by Blade
# Date/Time:  Tue Apr 07 20:45:29 2015
#---------------------------------------------------------
:version 1.10
:name HOM
:units
  mass 1.0
  length 1.000000
  angle deg
:documentation
     Acclaim Skeleton File
:root
   axis xyz
   order TX TY TZ RX RY RZ
   position 0.000000 0.000000 0.000000
   orientation 0 0 0
:bonedata
   begin
      id 1
      name Spine_dum
      direction 0.000000 1.000000 0.000000
      length 4.885285
      axis 0.0 0.0 0.0 xyz
   end
   begin
      id 2
      name LeftUpLeg_dum
      direction 1.000000 0.000000 0.000000
      length 2.672193
      axis 0.0 0.0 0.0 xyz
   end
   begin
      id 3
      name RightUpLeg_dum
      direction -1.000000 0.000000 0.000000
      length 2.672193
      axis 0.0 0.0 0.0 xyz
   end
   begin
      id 4
      name Spine
      direction 0.000000 1.000000 0.000000
      length 0.000000
      axis 0.0 0.0 0.0 xyz
      dof rx ry rz
   end
   begin
      id 5
      name Spine_dum1
      direction 0.000000 1.000000 0.000000
      length 16.494159
      axis 0.0 0.0 0.0 xyz
   end
   begin
      id 6
      name Spine_dum2
      direction 0.000000 1.000000 0.000000
      length 10.663448
      axis 0.0 0.0 0.0 xyz
   end
   begin
      id 7
      name Spine_dum3
      direction 0.000000 1.000000 0.000000
      length 10.663448
      axis 0.0 0.0 0.0 xyz
   end
   begin
      id 8
      name Head
      direction 0.000000 1.000000 0.000000
      length 4.527550
      axis 0.0 0.0 0.0 xyz
      dof rx ry rz
   end
   begin
      id 9
      name LeftShoulder
      direction 1.000000 0.000000 0.000000
      length 7.531907
      axis 0.0 0.0 -90.0 xyz
      dof rx ry rz
   end
   begin
      id 10
      name LeftArm
      direction 1.000000 0.000000 0.000000
      length 10.229199
      axis 0.0 0.0 -90.0 xyz
      dof rx ry rz
   end
   begin
      id 11
      name LeftForeArm
      direction 1.000000 0.000000 0.000000
      length 8.673495
      axis 0.0 0.0 -90.0 xyz
      dof ry rz rx
   end
   begin
      id 12
      name LeftHand
      direction 0.000000 0.000000 0.000000
      length 0.000000
      axis 0.0 0.0 -90.0 xyz
      dof rx ry rz
   end
   begin
      id 13
      name LeftHand_dum1
      direction 0.000000 0.000000 0.000000
      length 0.000000
      axis 0.0 0.0 -90.0 xyz
   end
   begin
      id 14
      name LeftHand_dum2
      direction 1.000000 0.000000 0.000000
      length 3.937000
      axis 0.0 0.0 -90.0 xyz
   end
   begin
      id 15
      name LeftHandThumb1
      direction 0.000000 0.000000 1.000000
      length 3.937000
      axis 0.0 0.0 -90.0 xyz
      dof rx rz ry
   end
   begin
      id 16
      name RightShoulder
      direction -1.000000 0.000000 0.000000
      length 7.531907
      axis 0.0 0.0 90.0 xyz
      dof rx ry rz
   end
   begin
      id 17
      name RightArm
      direction -1.000000 0.000000 0.000000
      length 10.229199
      axis 0.0 0.0 90.0 xyz
      dof rx ry rz
   end
   begin
      id 18
      name RightForeArm
      direction -1.000000 0.000000 0.000000
      length 8.673495
      axis 0.0 0.0 90.0 xyz
      dof ry rz rx
   end
   begin
      id 19
      name RightHand
      direction 0.000000 0.000000 0.000000
      length 0.000000
      axis 0.0 0.0 90.0 xyz
      dof rx ry rz
   end
   begin
      id 20
      name RightHand_dum1
      direction 0.000000 0.000000 0.000000
      length 0.000000
      axis 0.0 0.0 90.0 xyz
   end
   begin
      id 21
      name RightHand_dum2
      direction -1.000000 0.000000 0.000000
      length 3.937000
      axis 0.0 0.0 90.0 xyz
   end
   begin
      id 22
      name RightHandThumb1
      direction 0.000000 0.000000 1.000000
      length 3.937000
      axis 0.0 0.0 90.0 xyz
      dof rx rz ry
   end
   begin
      id 23
      name LeftUpLeg
      direction 0.000000 -1.000000 0.000000
      length 16.263388
      axis 0.0 0.0 0.0 xyz
      dof rx ry rz
   end
   begin
      id 24
      name LeftLeg
      direction 0.000000 -1.000000 0.000000
      length 14.328163
      axis 0.0 0.0 0.0 xyz
      dof rx ry rz
   end
   begin
      id 25
      name LeftFoot
      direction 0.000000 -0.258819 0.965926
      length 5.031290
      axis 15.0 0.0 0.0 xyz
      dof rx ry rz
   end
   begin
      id 26
      name LeftToeBase
      direction 0.000000 0.000000 1.000000
      length 2.952750
      axis 0.0 0.0 0.0 xyz
      dof rx ry rz
   end
   begin
      id 27
      name RightUpLeg
      direction 0.000000 -1.000000 0.000000
      length 16.263388
      axis 0.0 0.0 0.0 xyz
      dof rx ry rz
   end
   begin
      id 28
      name RightLeg
      direction 0.000000 -1.000000 0.000000
      length 14.328163
      axis 0.0 0.0 0.0 xyz
      dof rx ry rz
   end
   begin
      id 29
      name RightFoot
      direction 0.000000 -0.258819 0.965926
      length 5.031290
      axis 15.0 0.0 0.0 xyz
      dof rx ry rz
   end
   begin
      id 30
      name RightToeBase
      direction 0.000000 0.000000 1.000000
      length 2.952750
      axis 0.0 0.0 0.0 xyz
      dof rx ry rz
   end
:hierarchy
   begin
      root Spine_dum LeftUpLeg_dum RightUpLeg_dum
      Spine_dum Spine
      LeftUpLeg_dum LeftUpLeg
      RightUpLeg_dum RightUpLeg
      Spine Spine_dum1 Spine_dum2 Spine_dum3
      Spine_dum1 Head
      Spine_dum2 LeftShoulder
      Spine_dum3 RightShoulder
      LeftShoulder LeftArm
      LeftArm LeftForeArm
      LeftForeArm LeftHand
      LeftHand LeftHand_dum1 LeftHand_dum2
      LeftHand_dum1 LeftHandThumb1
      RightShoulder RightArm
      RightArm RightForeArm
      RightForeArm RightHand
      RightHand RightHand_dum1 RightHand_dum2
      RightHand_dum1 RightHandThumb1
      LeftUpLeg LeftLeg
      LeftLeg LeftFoot
      LeftFoot LeftToeBase
      RightUpLeg RightLeg
      RightLeg RightFoot
      RightFoot RightToeBase
   end

# File created by Blade
# Date/Time:  Tue Apr 07 20:45:22 2015
# Frame Rate: 120.000 fps
#------------------------------------------------------
:FULLY-SPECIFIED
:DEGREES
67
root 1.400168 33.149366 -2.623262 9.395284 2.515851 2.078490
Spine -11.862258 -7.678866 -2.721872
Head 15.508228 -1.478932 0.020167
LeftShoulder -20.925505 40.765957 18.267859
LeftArm 60.050958 -53.045430 -63.182447
LeftForeArm 10.287437 -0.000000 3.418590
LeftHand 4.196702 -0.000000 8.705846
LeftHandThumb1 -26.253704 0.000000 33.147579
RightShoulder -8.456615 0.038731 -29.246572
RightArm 11.330697 15.572986 41.714973
RightForeArm -11.135500 -0.000000 6.240851
RightHand 4.763296 -0.000000 -4.011137
RightHandThumb1 -24.326973 -0.000000 -32.862282
LeftUpLeg -2.512792 -2.253439 -3.152921
LeftLeg -5.905706 -0.000000 0.000000
LeftFoot 2.771015 8.602106 -14.832345
LeftToeBase -13.332987 -0.000000 0.000000
RightUpLeg -4.179540 -3.953550 -1.244321
RightLeg -2.881784 -0.000000 0.000000
RightFoot -5.522742 -5.398405 11.076520
RightToeBase -0.553136 -0.000000 0.000000
68
root 1.404396 33.137057 -2.658664 9.378494 2.552529 1.885812
Spine -11.730973 -7.667098 -2.475922
Head 15.384522 -1.517905 -0.069430
LeftShoulder -20.884062 40.862296 18.038796
LeftArm 60.240236 -52.675066 -63.843355
LeftForeArm 10.341506 -0.000000 3.843052
LeftHand 4.300674 -0.000000 9.030410
LeftHandThumb1 -26.253704 0.000000 33.147579
RightShoulder -8.331009 -0.054856 -29.044869
RightArm 11.372137 15.531212 41.980961
RightForeArm -11.001559 -0.000000 6.428060
RightHand 4.534129 -0.000000 -4.049246
RightHandThumb1 -24.326973 -0.000000 -32.862282
LeftUpLeg -2.697189 -2.173479 -3.008730
LeftLeg -5.591813 -0.000000 0.000000
LeftFoot 2.296259 8.581862 -14.645690
LeftToeBase -13.157058 -0.000000 0.000000
RightUpLeg -4.248360 -3.960379 -1.049593
RightLeg -2.843573 -0.000000 0.000000
RightFoot -5.587847 -5.440812 11.083662
RightToeBase -0.442483 -0.000000 0.000000
69
root 1.402493 33.120676 -2.696058 9.368155 2.599880 1.597814
Spine -11.605853 -7.647444 -2.137495
Head 15.255510 -1.570142 -0.131757
LeftShoulder -20.855296 41.042278 17.811865
LeftArm 60.633192 -52.331434 -64.743201
LeftForeArm 10.446001 -0.000000 4.290638
LeftHand 4.230056 0.000000 9.076960
LeftHandThumb1 -26.253704 0.000000 33.147579
RightShoulder -8.180314 -0.084916 -28.896837
RightArm 11.338447 15.493744 42.319741
RightForeArm -10.940264 -0.000000 6.561925
RightHand 4.774557 -0.000000 -3.978748
RightHandThumb1 -24.326973 -0.000000 -32.862282
LeftUpLeg -2.865598 -2.302488 -2.753272
LeftLeg -5.358117 -0.000000 0.000000
LeftFoot 1.804659 8.880233 -14.403456
LeftToeBase -12.976292 -0.000000 0.000000
RightUpLeg -4.311132 -3.912409 -0.755222
RightLeg -2.846207 -0.000000 0.000000
RightFoot -5.630691 -5.496384 11.152248
RightToeBase -0.318301 -0.000000 0.000000
70
root 1.407829 33.101195 -2.730972 9.350490 2.623492 1.339591
Spine -11.483798 -7.610935 -1.807472
Head 15.137831 -1.591845 -0.242555
LeftShoulder -20.848749 41.259110 17.537405
LeftArm 61.014896 -51.938384 -65.571181
LeftForeArm 10.506311 0.000000 4.659572
LeftHand 4.175929 -0.000000 9.014873
LeftHandThumb1 -26.253704 0.000000 33.147579
RightShoulder -8.023231 -0.135338 -28.728434
RightArm 11.349745 15.450988 42.624056
RightForeArm -10.770535 0.000000 6.731817
RightHand 4.788617 -0.000000 -4.084932
RightHandThumb1 -24.326973 -0.000000 -32.862282
LeftUpLeg -3.040412 -2.194366 -2.552832
LeftLeg -5.095471 -0.000000 0.000000
LeftFoot 1.355758 8.829551 -14.271331
LeftToeBase -12.567589 -0.000000 0.000000
RightUpLeg -4.356327 -3.910599 -0.507951
RightLeg -2.855465 -0.000000 0.000000
RightFoot -5.706223 -5.468158 11.221791
RightToeBase -0.212973 -0.000000 0.000000
